<svg width="95" height="24" viewBox="0 0 95 24" fill="none" xmlns="http://www.w3.org/2000/svg">
<path fill-rule="evenodd" clip-rule="evenodd" d="M16.9619 7.66406C18.0659 7.66406 19.0706 7.94763 19.9746 8.51562C20.8865 9.08358 21.6105 9.84774 22.1465 10.8076C22.6905 11.7676 22.9619 12.832 22.9619 14C22.9619 14.872 22.8061 15.6882 22.4941 16.4482C22.1822 17.2081 21.7501 17.8799 21.1982 18.4639C20.6542 19.0399 20.018 19.4923 19.29 19.8203C18.5701 20.1482 17.7938 20.3115 16.9619 20.3115C15.8581 20.3115 14.8504 20.0278 13.9385 19.46C13.0345 18.892 12.3106 18.1317 11.7666 17.1797C11.2306 16.2197 10.9619 15.16 10.9619 14C10.9619 13.1201 11.1177 12.3 11.4297 11.54C11.7416 10.7722 12.17 10.1003 12.7139 9.52441C13.2658 8.94052 13.906 8.48424 14.6338 8.15625C15.3617 7.82828 16.138 7.66409 16.9619 7.66406ZM16.9619 8.95996C16.0741 8.96 15.2744 9.19235 14.5625 9.65625C13.8505 10.1202 13.2861 10.7359 12.8701 11.5039C12.4621 12.2639 12.2578 13.096 12.2578 14C12.2578 14.936 12.4705 15.7839 12.8945 16.5439C13.3265 17.2959 13.8984 17.8958 14.6104 18.3438C15.3223 18.7917 16.106 19.0156 16.9619 19.0156C17.8499 19.0156 18.6466 18.7843 19.3506 18.3203C20.0624 17.8564 20.626 17.2442 21.042 16.4844C21.458 15.7244 21.666 14.896 21.666 14C21.666 13.096 21.458 12.2602 21.042 11.4922C20.6261 10.7243 20.0624 10.1122 19.3506 9.65625C18.6386 9.19225 17.8419 8.95996 16.9619 8.95996Z" fill="#141414"/>
<path fill-rule="evenodd" clip-rule="evenodd" d="M41.3584 20H39.3418V17.96C38.9338 18.6639 38.3862 19.2321 37.6982 19.6641C37.0103 20.096 36.2023 20.3115 35.2744 20.3115C34.4025 20.3115 33.5861 20.1483 32.8262 19.8203C32.0662 19.4923 31.3945 19.0398 30.8105 18.4639C30.2346 17.8799 29.7821 17.2082 29.4541 16.4482C29.1261 15.6882 28.9619 14.872 28.9619 14C28.9619 13.128 29.1261 12.3118 29.4541 11.5518C29.7821 10.7838 30.2346 10.1121 30.8105 9.53613C31.3945 8.95219 32.0662 8.49594 32.8262 8.16797C33.5862 7.83998 34.4024 7.67578 35.2744 7.67578C36.2023 7.67582 37.0103 7.89226 37.6982 8.32422C38.3862 8.75621 38.9338 9.32437 39.3418 10.0283V2H41.3584V20ZM35.2979 9.63184C34.506 9.63189 33.7856 9.82778 33.1377 10.2197C32.4979 10.6116 31.9865 11.14 31.6025 11.8037C31.2185 12.4597 31.0264 13.192 31.0264 14C31.0264 14.808 31.2223 15.544 31.6143 16.208C32.0062 16.8639 32.5259 17.3883 33.1738 17.7803C33.8217 18.1642 34.53 18.3564 35.2979 18.3564C36.0899 18.3564 36.7746 18.1643 37.3506 17.7803C37.9345 17.3883 38.3824 16.8601 38.6943 16.1963C39.0143 15.5323 39.1738 14.8 39.1738 14C39.1738 13.184 39.0143 12.448 38.6943 11.792C38.3743 11.128 37.9219 10.6037 37.3379 10.2197C36.762 9.82787 36.0817 9.63184 35.2979 9.63184Z" fill="#141414"/>
<path fill-rule="evenodd" clip-rule="evenodd" d="M49.709 7.66406C50.5808 7.66408 51.3488 7.8638 52.0127 8.26367C52.6847 8.65567 53.2407 9.16037 53.6807 9.77637L53.5732 8H56.0684V20H53.5605L53.4648 18.2598C53.1129 18.8757 52.637 19.3721 52.0371 19.748C51.4372 20.124 50.729 20.3115 49.9131 20.3115C49.0331 20.3115 48.2047 20.1483 47.4287 19.8203C46.6527 19.4843 45.969 19.0197 45.377 18.4277C44.793 17.8358 44.3368 17.1557 44.0088 16.3877C43.6809 15.6118 43.5166 14.7795 43.5166 13.8916C43.5167 13.0359 43.6772 12.2323 43.9971 11.4805C44.3171 10.7205 44.7611 10.0563 45.3291 9.48828C45.8971 8.9203 46.5529 8.47625 47.2969 8.15625C48.0489 7.82825 48.853 7.66406 49.709 7.66406ZM49.8525 10.0879C49.1568 10.0879 48.5212 10.2644 47.9453 10.6162C47.3693 10.9682 46.9131 11.4402 46.5771 12.0322C46.2412 12.6242 46.0732 13.28 46.0732 14C46.0732 14.728 46.2449 15.3885 46.5889 15.9805C46.9408 16.5642 47.4009 17.0319 47.9688 17.3838C48.5447 17.7277 49.1727 17.9003 49.8525 17.9004C50.5565 17.9004 51.1732 17.7278 51.7012 17.3838C52.229 17.0318 52.6369 16.5597 52.9248 15.9678C53.2207 15.3758 53.3691 14.7199 53.3691 14C53.3691 13.272 53.2208 12.6115 52.9248 12.0195C52.6288 11.4277 52.2164 10.9601 51.6885 10.6162C51.1685 10.2643 50.5565 10.0879 49.8525 10.0879Z" fill="#141414"/>
<path fill-rule="evenodd" clip-rule="evenodd" d="M70.4639 20H67.5352V18.5C67.1512 19.0359 66.667 19.4716 66.083 19.8076C65.4991 20.1435 64.8235 20.3115 64.0557 20.3115C63.1837 20.3115 62.3674 20.1483 61.6074 19.8203C60.8475 19.4923 60.1758 19.0398 59.5918 18.4639C59.0158 17.8799 58.5633 17.2082 58.2354 16.4482C57.9074 15.6882 57.7432 14.872 57.7432 14C57.7432 13.128 57.9074 12.3118 58.2354 11.5518C58.5633 10.7918 59.0158 10.1238 59.5918 9.54785C60.1757 8.96398 60.8475 8.50764 61.6074 8.17969C62.3674 7.85172 63.1837 7.68848 64.0557 7.68848C64.8235 7.68851 65.4991 7.85647 66.083 8.19238C66.667 8.52036 67.1512 8.95606 67.5352 9.5V2H70.4639V20ZM64.0918 10.4961C63.4759 10.4961 62.9114 10.6557 62.3994 10.9756C61.8954 11.2876 61.4915 11.7083 61.1875 12.2363C60.8916 12.7643 60.7432 13.3521 60.7432 14C60.7432 14.6479 60.8953 15.2358 61.1992 15.7637C61.5032 16.2917 61.9071 16.7124 62.4111 17.0244C62.9231 17.3364 63.4838 17.4922 64.0918 17.4922C64.7155 17.4921 65.2673 17.3362 65.7471 17.0244C66.2271 16.7124 66.603 16.2917 66.875 15.7637C67.147 15.2277 67.2832 14.64 67.2832 14C67.2832 13.352 67.147 12.7643 66.875 12.2363C66.603 11.7003 66.2234 11.2759 65.7354 10.9639C65.2555 10.652 64.7076 10.4962 64.0918 10.4961Z" fill="#141414"/>
<path fill-rule="evenodd" clip-rule="evenodd" d="M78.626 7.66406C79.73 7.66406 80.7347 7.94763 81.6387 8.51562C82.5506 9.08358 83.2746 9.84774 83.8105 10.8076C84.3545 11.7676 84.626 12.832 84.626 14C84.626 14.872 84.4702 15.6882 84.1582 16.4482C83.8462 17.2081 83.4142 17.8799 82.8623 18.4639C82.3183 19.0399 81.6821 19.4923 80.9541 19.8203C80.2342 20.1482 79.4579 20.3115 78.626 20.3115C77.5222 20.3115 76.5144 20.0278 75.6025 19.46C74.6985 18.892 73.9747 18.1317 73.4307 17.1797C72.8947 16.2197 72.626 15.16 72.626 14C72.626 13.1201 72.7818 12.3 73.0938 11.54C73.4057 10.7722 73.8341 10.1003 74.3779 9.52441C74.9298 8.94052 75.57 8.48424 76.2979 8.15625C77.0258 7.82828 77.8021 7.66409 78.626 7.66406ZM78.626 10.9756C78.1221 10.9756 77.6657 11.1165 77.2578 11.3965C76.85 11.6764 76.526 12.0442 76.2861 12.5C76.0541 12.956 75.9385 13.456 75.9385 14C75.9385 14.568 76.0579 15.0801 76.2979 15.5361C76.5458 15.9841 76.8743 16.3395 77.2822 16.6035C77.6902 16.8675 78.1381 17 78.626 17C79.1379 17 79.5979 16.8637 80.0059 16.5918C80.4137 16.3119 80.7338 15.9441 80.9658 15.4883C81.1978 15.0323 81.3145 14.536 81.3145 14C81.3145 13.4481 81.1903 12.9442 80.9424 12.4883C80.7024 12.0244 80.3786 11.6558 79.9707 11.3838C79.5627 11.1118 79.114 10.9756 78.626 10.9756Z" fill="#141414"/>
<path d="M5.28027 7.5918C6.27208 7.59184 7.1679 7.81206 7.96777 8.25195C8.77577 8.68395 9.33644 9.25205 9.64844 9.95605L8.78418 10.46C8.62421 10.068 8.36008 9.73212 7.99219 9.45215C7.62427 9.17221 7.20429 8.95571 6.73242 8.80371C6.26057 8.64376 5.78826 8.5645 5.31641 8.56445C4.72452 8.56445 4.17207 8.65964 3.66016 8.85156C3.14816 9.04356 2.73211 9.32438 2.41211 9.69238C2.1002 10.0524 1.94434 10.4844 1.94434 10.9883C1.94439 11.5081 2.08431 11.9038 2.36426 12.1758C2.64426 12.4398 3.03606 12.6599 3.54004 12.8359C4.05193 13.0039 4.65576 13.1999 5.35156 13.4238C6.09556 13.6558 6.79243 13.9124 7.44043 14.1924C8.08802 14.4643 8.61187 14.8079 9.01172 15.2236C9.41167 15.6396 9.61225 16.1799 9.6123 16.8438C9.6123 17.5397 9.40428 18.1442 8.98828 18.6562C8.58033 19.1682 8.04005 19.5638 7.36816 19.8438C6.70429 20.1157 5.99225 20.2482 5.23242 20.2402C4.56042 20.2322 3.89995 20.1156 3.25195 19.8916C2.6121 19.6596 2.05218 19.3479 1.57227 18.9561C1.10035 18.5641 0.775632 18.1283 0.599609 17.6484L1.52441 17.252C1.66839 17.6438 1.94377 17.992 2.35156 18.2959C2.76744 18.5998 3.23977 18.8396 3.76758 19.0156C4.29558 19.1836 4.80027 19.2676 5.28027 19.2676C5.86416 19.2675 6.40819 19.1677 6.91211 18.9678C7.41599 18.7678 7.82379 18.4878 8.13574 18.1279C8.45564 17.76 8.61611 17.3363 8.61621 16.8564C8.61621 16.3444 8.4483 15.9396 8.1123 15.6436C7.78431 15.3476 7.36354 15.1078 6.85156 14.9238C6.3397 14.7399 5.8077 14.5644 5.25586 14.3965C4.35996 14.1325 3.58838 13.8675 2.94043 13.6035C2.30052 13.3396 1.80786 13.0083 1.46387 12.6084C1.11987 12.2084 0.948242 11.672 0.948242 11C0.948242 10.3041 1.15174 9.70413 1.55957 9.2002C1.96757 8.6882 2.50025 8.29172 3.15625 8.01172C3.82015 7.73181 4.5284 7.5918 5.28027 7.5918Z" fill="#141414"/>
<path d="M26.792 20H25.1123V2H26.792V20Z" fill="#141414"/>
<path d="M93.376 7.66406C93.808 7.66407 94.2483 7.72845 94.6963 7.85645L93.2803 11.5039C93.0003 11.3759 92.712 11.3115 92.416 11.3115C92.04 11.3115 91.6958 11.4039 91.3838 11.5879C91.0798 11.7639 90.8363 12.0083 90.6523 12.3203C90.4764 12.6243 90.3877 12.9639 90.3877 13.3398V20H86.7881L86.7764 8H90.376L90.3877 8.75586C90.7877 8.41189 91.2439 8.14415 91.7559 7.95215C92.2679 7.76015 92.808 7.66406 93.376 7.66406Z" fill="#141414"/>
</svg>
