<svg width="95" height="24" viewBox="0 0 95 24" fill="none" xmlns="http://www.w3.org/2000/svg">
<path d="M86.6416 20.843L86.6296 8.84432H90.2298L90.2418 9.60023C90.6418 9.25627 91.0978 8.9883 91.6098 8.79632C92.1218 8.60434 92.6619 8.50835 93.2299 8.50835C93.6619 8.50835 94.1019 8.57235 94.5499 8.70033L93.1339 12.3479C92.8539 12.2199 92.5659 12.156 92.2698 12.156C91.8938 12.156 91.5498 12.2479 91.2378 12.4319C90.9338 12.6079 90.6898 12.8519 90.5058 13.1638C90.3298 13.4678 90.2418 13.8078 90.2418 14.1837V20.843H86.6416Z" fill="#141414"/>
<path d="M77.2555 21.155C76.1515 21.155 75.1835 20.871 74.3514 20.3031C73.5274 19.7351 72.9114 18.9752 72.5033 18.0233C72.1033 17.0634 71.9833 16.0035 72.1433 14.8437C72.2633 13.9638 72.5313 13.1438 72.9474 12.3839C73.3714 11.616 73.8994 10.9441 74.5314 10.3681C75.1635 9.78421 75.8635 9.32826 76.6315 9.0003C77.4076 8.67233 78.2076 8.50835 79.0316 8.50835C80.1357 8.50835 81.0997 8.79232 81.9238 9.36026C82.7558 9.9282 83.3758 10.6921 83.7838 11.652C84.1919 12.6119 84.3119 13.6758 84.1439 14.8437C84.0239 15.7156 83.7518 16.5315 83.3278 17.2914C82.9118 18.0513 82.3878 18.7232 81.7557 19.3072C81.1237 19.8831 80.4237 20.3351 79.6557 20.663C78.8876 20.991 78.0876 21.155 77.2555 21.155ZM77.7236 17.8433C78.2276 17.8433 78.6996 17.7073 79.1396 17.4354C79.5876 17.1554 79.9637 16.7874 80.2677 16.3315C80.5717 15.8755 80.7597 15.3796 80.8317 14.8437C80.9117 14.2917 80.8597 13.7878 80.6757 13.3318C80.4997 12.8679 80.2277 12.4999 79.8597 12.2279C79.4916 11.956 79.0596 11.82 78.5636 11.82C78.0676 11.82 77.5956 11.96 77.1475 12.2399C76.6995 12.5199 76.3235 12.8879 76.0195 13.3438C75.7235 13.7998 75.5355 14.2997 75.4555 14.8437C75.3755 15.4116 75.4275 15.9235 75.6115 16.3795C75.7955 16.8274 76.0715 17.1834 76.4395 17.4474C76.8075 17.7113 77.2355 17.8433 77.7236 17.8433Z" fill="#141414"/>
<path d="M67.3885 2.84497H70.3166V20.843H67.3885V19.3432C67.0045 19.8791 66.5205 20.3151 65.9364 20.651C65.3524 20.987 64.6764 21.155 63.9083 21.155C63.0363 21.155 62.2203 20.991 61.4602 20.663C60.7002 20.3351 60.0282 19.8831 59.4441 19.3072C58.8681 18.7232 58.4161 18.0513 58.0881 17.2914C57.7601 16.5315 57.5961 15.7156 57.5961 14.8437C57.5961 13.9718 57.7601 13.1558 58.0881 12.3959C58.4161 11.636 58.8681 10.9681 59.4441 10.3921C60.0282 9.80821 60.7002 9.35226 61.4602 9.0243C62.2203 8.69633 63.0363 8.53235 63.9083 8.53235C64.6764 8.53235 65.3524 8.70033 65.9364 9.03629C66.5205 9.36426 67.0045 9.80021 67.3885 10.3442V2.84497ZM63.9444 18.3353C64.5684 18.3353 65.1204 18.1793 65.6004 17.8673C66.0804 17.5554 66.4565 17.1354 66.7285 16.6075C67.0005 16.0715 67.1365 15.4836 67.1365 14.8437C67.1365 14.1957 67.0005 13.6078 66.7285 13.0799C66.4565 12.5439 66.0764 12.12 65.5884 11.808C65.1084 11.496 64.5604 11.34 63.9444 11.34C63.3283 11.34 62.7643 11.5 62.2523 11.82C61.7483 12.132 61.3442 12.5519 61.0402 13.0799C60.7442 13.6078 60.5962 14.1957 60.5962 14.8437C60.5962 15.4916 60.7482 16.0795 61.0522 16.6075C61.3562 17.1354 61.7603 17.5554 62.2643 17.8673C62.7763 18.1793 63.3363 18.3353 63.9444 18.3353Z" fill="#141414"/>
<path d="M53.4253 8.84432H55.9214V20.843H53.4133L53.3173 19.1032C52.9653 19.7191 52.4893 20.2151 51.8892 20.591C51.2892 20.967 50.5812 21.155 49.7652 21.155C48.8851 21.155 48.0571 20.991 47.281 20.663C46.505 20.3271 45.821 19.8631 45.229 19.2712C44.6449 18.6792 44.1889 17.9993 43.8609 17.2314C43.5329 16.4555 43.3689 15.6236 43.3689 14.7357C43.3689 13.8798 43.5289 13.0759 43.8489 12.3239C44.1689 11.564 44.6129 10.9001 45.1809 10.3322C45.749 9.76421 46.405 9.32026 47.149 9.0003C47.9011 8.67233 48.7051 8.50835 49.5611 8.50835C50.4332 8.50835 51.2012 8.70833 51.8652 9.10829C52.5373 9.50024 53.0933 10.0042 53.5333 10.6201L53.4253 8.84432ZM49.7051 18.7432C50.4092 18.7432 51.0252 18.5713 51.5532 18.2273C52.0813 17.8753 52.4893 17.4034 52.7773 16.8114C53.0733 16.2195 53.2213 15.5636 53.2213 14.8437C53.2213 14.1157 53.0733 13.4558 52.7773 12.8639C52.4813 12.2719 52.0693 11.804 51.5412 11.46C51.0212 11.1081 50.4092 10.9321 49.7051 10.9321C49.0091 10.9321 48.3731 11.1081 47.7971 11.46C47.221 11.812 46.765 12.2839 46.429 12.8759C46.093 13.4678 45.925 14.1237 45.925 14.8437C45.925 15.5716 46.097 16.2315 46.441 16.8234C46.793 17.4074 47.253 17.8753 47.8211 18.2273C48.3971 18.5713 49.0251 18.7432 49.7051 18.7432Z" fill="#141414"/>
<path d="M39.194 2.84497H41.2101V20.843H39.194V18.8032C38.786 19.5071 38.2379 20.0751 37.5499 20.507C36.8619 20.939 36.0539 21.155 35.1258 21.155C34.2538 21.155 33.4377 20.991 32.6777 20.663C31.9177 20.3351 31.2456 19.8831 30.6616 19.3072C30.0856 18.7232 29.6336 18.0513 29.3055 17.2914C28.9775 16.5315 28.8135 15.7156 28.8135 14.8437C28.8135 13.9718 28.9775 13.1558 29.3055 12.3959C29.6336 11.628 30.0856 10.9561 30.6616 10.3801C31.2456 9.79621 31.9177 9.34026 32.6777 9.0123C33.4377 8.68433 34.2538 8.52035 35.1258 8.52035C36.0539 8.52035 36.8619 8.73633 37.5499 9.16828C38.2379 9.60023 38.786 10.1682 39.194 10.8721V2.84497ZM35.1498 19.1992C35.9418 19.1992 36.6259 19.0072 37.2019 18.6232C37.7859 18.2313 38.234 17.7033 38.546 17.0394C38.866 16.3755 39.026 15.6436 39.026 14.8437C39.026 14.0277 38.866 13.2918 38.546 12.6359C38.226 11.972 37.7739 11.448 37.1899 11.0641C36.6139 10.6721 35.9338 10.4761 35.1498 10.4761C34.3578 10.4761 33.6377 10.6721 32.9897 11.0641C32.3497 11.456 31.8377 11.984 31.4536 12.6479C31.0696 13.3038 30.8776 14.0357 30.8776 14.8437C30.8776 15.6516 31.0736 16.3875 31.4656 17.0514C31.8577 17.7073 32.3777 18.2313 33.0257 18.6232C33.6737 19.0072 34.3818 19.1992 35.1498 19.1992Z" fill="#141414"/>
<path d="M24.9628 20.843V2.84497H26.6428V20.843H24.9628Z" fill="#141414"/>
<path d="M15.5887 21.155C14.4847 21.155 13.5166 20.871 12.6846 20.3031C11.8606 19.7351 11.2445 18.9752 10.8365 18.0233C10.4365 17.0634 10.3165 16.0035 10.4765 14.8437C10.5965 13.9638 10.8645 13.1438 11.2805 12.3839C11.7045 11.616 12.2326 10.9441 12.8646 10.3681C13.4966 9.78421 14.1967 9.32826 14.9647 9.0003C15.7407 8.67233 16.5408 8.50835 17.3648 8.50835C18.4688 8.50835 19.4329 8.79232 20.2569 9.36026C21.089 9.9282 21.709 10.6921 22.117 11.652C22.525 12.6119 22.645 13.6758 22.477 14.8437C22.357 15.7156 22.085 16.5315 21.661 17.2914C21.245 18.0513 20.721 18.7232 20.0889 19.3072C19.4569 19.8831 18.7569 20.3351 17.9888 20.663C17.2208 20.991 16.4208 21.155 15.5887 21.155ZM15.7687 19.8591C16.6488 19.8591 17.4768 19.6271 18.2528 19.1632C19.0289 18.6992 19.6809 18.0873 20.2089 17.3274C20.737 16.5675 21.061 15.7396 21.181 14.8437C21.309 13.9398 21.217 13.1038 20.905 12.3359C20.5929 11.568 20.1169 10.9561 19.4769 10.5001C18.8369 10.0362 18.0728 9.80421 17.1848 9.80421C16.2968 9.80421 15.4647 10.0362 14.6887 10.5001C13.9126 10.9641 13.2646 11.58 12.7446 12.3479C12.2246 13.1078 11.9006 13.9398 11.7725 14.8437C11.6445 15.7796 11.7405 16.6275 12.0606 17.3874C12.3806 18.1393 12.8646 18.7392 13.5126 19.1872C14.1607 19.6351 14.9127 19.8591 15.7687 19.8591Z" fill="#141414"/>
<path d="M5.08216 21.083C4.41013 21.075 3.7501 20.959 3.10207 20.735C2.46204 20.503 1.90202 20.1911 1.42199 19.7991C0.949974 19.4072 0.625959 18.9712 0.449951 18.4913L1.37399 18.0953C1.518 18.4873 1.79401 18.8352 2.20203 19.1392C2.61805 19.4432 3.09007 19.6831 3.61809 19.8591C4.14612 20.0271 4.65014 20.1111 5.13016 20.1111C5.71419 20.1111 6.25821 20.0111 6.76223 19.8111C7.26626 19.6111 7.67428 19.3312 7.98629 18.9712C8.3063 18.6032 8.46631 18.1793 8.46631 17.6993C8.46631 17.1874 8.2983 16.7834 7.96229 16.4875C7.63427 16.1915 7.21425 15.9515 6.70223 15.7676C6.19021 15.5836 5.65819 15.4076 5.10616 15.2396C4.21012 14.9756 3.43809 14.7117 2.79006 14.4477C2.15003 14.1837 1.65801 13.8518 1.31399 13.4518C0.969975 13.0519 0.797967 12.5159 0.797967 11.844C0.797967 11.1481 1.00198 10.5481 1.40999 10.0442C1.81801 9.53224 2.35004 9.13628 3.00607 8.85631C3.6701 8.57634 4.37813 8.43636 5.13016 8.43636C6.12221 8.43636 7.01825 8.65633 7.81828 9.09629C8.62632 9.52824 9.18634 10.0962 9.49836 10.8001L8.63432 11.304C8.47431 10.9121 8.2103 10.5761 7.84228 10.2962C7.47427 10.0162 7.05425 9.80021 6.58223 9.64823C6.11021 9.48824 5.63818 9.40825 5.16616 9.40825C4.57414 9.40825 4.02211 9.50424 3.51009 9.69622C2.99807 9.8882 2.58205 10.1682 2.26203 10.5361C1.95002 10.8961 1.79401 11.328 1.79401 11.832C1.79401 12.3519 1.93402 12.7479 2.21403 13.0199C2.49404 13.2838 2.88606 13.5038 3.39008 13.6798C3.90211 13.8478 4.50613 14.0437 5.20216 14.2677C5.9462 14.4997 6.64223 14.7557 7.29026 15.0356C7.93829 15.3076 8.46231 15.6516 8.86233 16.0675C9.26235 16.4835 9.46236 17.0234 9.46236 17.6873C9.46236 18.3833 9.25435 18.9872 8.83833 19.4991C8.43031 20.0111 7.89028 20.407 7.21825 20.687C6.55422 20.959 5.84219 21.091 5.08216 21.083Z" fill="#141414"/>
</svg>
