<svg width="1872" height="312" viewBox="0 0 1872 312" fill="none" xmlns="http://www.w3.org/2000/svg">
<path d="M90.6816 117.337C111.447 117.337 130.203 121.954 146.949 131.187C163.863 140.251 175.586 152.169 182.117 166.94L164.031 177.517C160.682 169.291 155.155 162.241 147.452 156.366C139.749 150.491 130.957 145.958 121.077 142.769C111.197 139.411 101.316 137.732 91.4355 137.732C79.0432 137.732 67.4873 139.747 56.7695 143.775C46.052 147.804 37.344 153.68 30.6455 161.401C24.1145 168.955 20.8496 178.02 20.8496 188.596C20.8496 199.507 23.7804 207.816 29.6416 213.523C35.5028 219.063 43.708 223.679 54.2578 227.372C64.9754 230.897 77.6193 235.01 92.1885 239.71C107.762 244.578 122.332 249.95 135.896 255.825C149.461 261.533 160.431 268.751 168.804 277.479C177.177 286.208 181.363 297.539 181.363 311.472C181.363 311.648 181.361 311.824 181.359 312H160.511C160.511 311.908 160.514 311.816 160.514 311.724C160.514 300.981 156.997 292.503 149.964 286.292C143.098 280.081 134.306 275.046 123.589 271.186C112.871 267.325 101.735 263.632 90.1797 260.106C71.4238 254.567 55.2628 249.027 41.6982 243.487C28.3014 237.948 18.0017 230.982 10.8008 222.589C3.59988 214.196 6.09735e-05 202.948 0 188.848C1.79593e-05 174.244 4.27 161.654 12.8105 151.078C21.3512 140.335 32.4878 132.025 46.2197 126.149C60.1191 120.274 74.9401 117.337 90.6816 117.337Z" fill="#141414"/>
<path d="M346.781 118.849C369.891 118.849 390.071 124.807 407.319 136.726C424.736 148.644 437.714 164.675 446.255 184.818C454.796 204.962 457.307 227.289 453.79 251.797C451.278 270.094 445.585 287.216 436.71 303.163C435.065 306.175 433.339 309.12 431.532 312H400.273C402.366 309.401 404.381 306.708 406.314 303.918C417.367 287.971 424.15 270.597 426.662 251.797C429.341 232.828 427.416 215.286 420.885 199.171C414.354 183.056 404.388 170.215 390.991 160.646C377.594 150.911 361.602 146.042 343.014 146.042C324.425 146.042 307.008 150.91 290.764 160.646C274.52 170.383 260.955 183.308 250.07 199.423C239.185 215.37 232.403 232.828 229.724 251.797C227.044 271.437 229.053 289.231 235.752 305.178C236.747 307.522 237.818 309.797 238.966 312H207.649C201.288 293.607 199.602 273.539 202.594 251.797C205.106 233.332 210.717 216.125 219.425 200.178C228.3 184.063 239.353 169.962 252.583 157.876C265.812 145.622 280.466 136.054 296.542 129.172C312.786 122.29 329.533 118.849 346.781 118.849Z" fill="#141414"/>
<path d="M525.92 312H490.752V0H525.92V312Z" fill="#141414"/>
<path d="M815.764 312H751.7C754.846 307.673 757.613 302.964 759.999 297.875C766.697 283.943 770.047 268.583 770.047 251.797C770.047 234.675 766.698 219.231 759.999 205.466C753.3 191.533 743.838 180.538 731.613 172.48C719.556 164.255 705.321 160.143 688.91 160.143C672.331 160.143 657.259 164.255 643.694 172.48C630.297 180.706 619.58 191.785 611.542 205.718C603.504 219.483 599.484 234.843 599.484 251.797C599.484 268.751 603.587 284.194 611.793 298.127C614.767 303.116 618.094 307.739 621.772 312H570.747C569.265 309.12 567.874 306.175 566.577 303.163C559.711 287.216 556.278 270.094 556.278 251.797C556.278 233.5 559.711 216.378 566.577 200.431C573.443 184.316 582.905 170.214 594.963 158.128C607.188 145.874 621.254 136.305 637.163 129.423C653.072 122.54 670.155 119.1 688.408 119.1C707.834 119.1 724.748 123.632 739.149 132.696C753.551 141.761 765.023 153.68 773.563 168.452V0H815.764V312Z" fill="#141414"/>
<path d="M975.497 118.849C993.751 118.849 1009.83 123.044 1023.73 131.438C1037.79 139.663 1049.43 150.239 1058.64 163.164L1056.38 125.898H1108.63V312H1029.95C1035.07 306.528 1039.36 300.225 1042.82 293.092C1049.02 280.67 1052.11 266.904 1052.11 251.797C1052.11 236.522 1049.02 222.673 1042.82 210.251C1036.62 197.829 1028 188.008 1016.95 180.79C1006.06 173.404 993.249 169.711 978.512 169.711C963.943 169.711 950.63 173.404 938.572 180.79C926.515 188.176 916.969 198.08 909.936 210.502C902.902 222.924 899.385 236.689 899.385 251.797C899.385 267.072 902.986 280.921 910.187 293.343C914.406 300.36 919.368 306.579 925.07 312H860.96C859.244 308.719 857.65 305.355 856.18 301.904C849.314 285.621 845.881 268.163 845.881 249.53C845.881 231.569 849.23 214.698 855.929 198.919C862.627 182.972 871.921 169.039 883.811 157.121C895.701 145.203 909.434 135.886 925.008 129.172C940.749 122.29 957.579 118.849 975.497 118.849Z" fill="#141414"/>
<path d="M1394.88 312H1300.73C1308.63 305.881 1314.97 298.151 1319.77 288.811C1325.47 277.564 1328.32 265.226 1328.32 251.797C1328.32 238.2 1325.47 225.862 1319.77 214.783C1314.08 203.536 1306.13 194.639 1295.91 188.092C1285.86 181.545 1274.39 178.273 1261.5 178.272C1248.6 178.273 1236.8 181.629 1226.08 188.344C1215.53 194.89 1207.07 203.704 1200.71 214.783C1194.51 225.862 1191.41 238.2 1191.41 251.797C1191.41 265.394 1194.59 277.732 1200.96 288.811C1206.32 298.151 1213.18 305.881 1221.52 312H1143.08C1141.6 309.12 1140.21 306.175 1138.91 303.163C1132.05 287.216 1128.61 270.094 1128.61 251.797C1128.61 233.5 1132.05 216.378 1138.91 200.431C1145.78 184.484 1155.24 170.467 1167.3 158.381C1179.52 146.127 1193.59 136.558 1209.5 129.676C1225.41 122.793 1242.49 119.352 1260.74 119.352C1276.82 119.352 1290.97 122.878 1303.2 129.928C1315.42 136.81 1325.55 145.958 1333.59 157.373V0H1394.88V312Z" fill="#141414"/>
<path d="M1562.24 118.849C1585.35 118.849 1605.53 124.807 1622.78 136.726C1640.19 148.644 1653.17 164.675 1661.71 184.818C1670.25 204.962 1672.76 227.289 1669.25 251.797C1666.74 270.094 1661.04 287.216 1652.17 303.163C1650.52 306.175 1648.8 309.12 1646.99 312H1552.13C1556.38 310.598 1560.5 308.661 1564.5 306.185C1573.88 300.309 1581.75 292.587 1588.11 283.019C1594.47 273.451 1598.41 263.043 1599.92 251.797C1601.59 240.214 1600.5 229.638 1596.65 220.069C1592.97 210.334 1587.27 202.612 1579.57 196.904C1571.87 191.197 1562.82 188.344 1552.44 188.344C1542.06 188.344 1532.18 191.282 1522.8 197.157C1513.42 203.032 1505.55 210.754 1499.19 220.322C1492.99 229.89 1489.06 240.382 1487.38 251.797C1485.71 263.715 1486.8 274.458 1490.65 284.026C1494.5 293.427 1500.28 300.897 1507.98 306.437C1511.26 308.793 1514.76 310.646 1518.49 312H1423.11C1416.75 293.606 1415.06 273.539 1418.05 251.797C1420.56 233.332 1426.17 216.125 1434.88 200.178C1443.76 184.063 1454.81 169.962 1468.04 157.876C1481.27 145.622 1495.92 136.054 1512 129.172C1528.24 122.289 1544.99 118.849 1562.24 118.849Z" fill="#141414"/>
<path d="M1844.37 118.849C1853.41 118.849 1862.62 120.19 1872 122.876L1842.36 199.423C1836.5 196.737 1830.47 195.395 1824.27 195.395C1816.4 195.395 1809.2 197.325 1802.67 201.186C1796.31 204.879 1791.2 209.998 1787.35 216.545C1783.66 222.924 1781.82 230.059 1781.82 237.948V312H1706.4L1706.21 125.898H1781.57L1781.82 141.761C1790.19 134.543 1799.74 128.919 1810.46 124.891C1821.17 120.862 1832.48 118.849 1844.37 118.849Z" fill="#141414"/>
</svg>
